<svg width="56" height="56" viewBox="0 0 14.817 14.817"
xmlns="http://www.w3.org/2000/svg">
    <path d="M113.315 18.746c0-2.06-.674-6.649-.702-6.843a.253.253 0 0 0-.339-.2c-.07.026-1.743.654-3.443 1.824-1.006.692-1.81 1.43-2.388 2.194-.737.972-1.11 1.99-1.11 3.025a3.998 3.998 0 0 0 3.212 3.914c.09.564.212 1.086.366 1.553a.253.253 0 0 0 .24.174.253.253 0 0 0 .08-.013.253.253 0 0 0 .16-.32 9.24 9.24 0 0 1-.322-1.325 3.996 3.996 0 0 0 4.246-3.983zm-7.476 0c0-2.103 1.778-3.77 3.27-4.797a17.395 17.395 0 0 1 2.612-1.463c-.535.773-1.585 2.387-2.21 4.002-.051.13.014.277.144.327a.252.252 0 0 0 .091.017.253.253 0 0 0 .236-.161c.629-1.623 1.735-3.294 2.228-4 .192 1.39.6 4.522.6 6.075a3.49 3.49 0 0 1-3.486 3.485 3.49 3.49 0 0 1-3.485-3.485z"
    style="stroke-width:2"
    transform="translate(-101.916 -10.629)" />
    <path d="M109.394 17.673a.253.253 0 0 0-.296.2c-.053.274-.08.534-.084.773-.002.14.109.255.249.257h.004c.138 0 .25-.111.253-.25.003-.209.028-.44.075-.684a.253.253 0 0 0-.201-.296z"
    style="stroke-width:2"
    transform="translate(-101.916 -10.629)" />
</svg>
